ffmpeg started on 2016-12-05 at 00:59:28
Report written to "Output/x264/results/ffmpeg/crowd_run_2160p50veryfast4000k.log"
Command line:
Tools/ffmpeg/ffmpeg -benchmark -y -i Input/y4m/crowd_run_2160p50.y4m -c:v libx264 -preset veryfast -b:v 4000k -an Output/x264/encoded/crowd_run_2160p50veryfast4000k.mkv
ffmpeg version N-82227-gdb23fde Copyright (c) 2000-2016 the FFmpeg developers
  built with gcc 5.4.0 (Ubuntu 5.4.0-6ubuntu1~16.04.2) 20160609
  configuration: --prefix=/home/jaroslav/ffmpeg_build --pkg-config-flags=--static --extra-cflags=-I/home/jaroslav/ffmpeg_build/include --extra-ldflags=-L/home/jaroslav/ffmpeg_build/lib --bindir=/home/jaroslav/bin --enable-gpl --enable-libass --enable-libfdk-aac --enable-libfreetype --enable-libmp3lame --enable-libopus --enable-libtheora --enable-libvorbis --enable-libvpx --enable-libx264 --enable-libx265 --enable-nvenc --enable-libmfx --enable-libxvid --enable-libgsm --enable-libopencore-amrnb --enable-version3 --enable-nonfree
  libavutil      55. 35.100 / 55. 35.100
  libavcodec     57. 66.101 / 57. 66.101
  libavformat    57. 57.100 / 57. 57.100
  libavdevice    57.  2.100 / 57.  2.100
  libavfilter     6. 66.100 /  6. 66.100
  libswscale      4.  3.100 /  4.  3.100
  libswresample   2.  4.100 /  2.  4.100
  libpostproc    54.  2.100 / 54.  2.100
Input #0, yuv4mpegpipe, from 'Input/y4m/crowd_run_2160p50.y4m':
  Duration: 00:00:10.00, start: 0.000000, bitrate: 4976642 kb/s
    Stream #0:0: Video: rawvideo (I420 / 0x30323449), yuv420p(progressive), 3840x2160, SAR 1:1 DAR 16:9, 50 fps, 50 tbr, 50 tbn, 50 tbc
[libx264 @ 0x32611c0] using SAR=1/1
[libx264 @ 0x32611c0] using cpu capabilities: MMX2 SSE2Fast SSSE3 SSE4.2 AVX FMA3 AVX2 LZCNT BMI2
[libx264 @ 0x32611c0] profile High, level 5.2
[libx264 @ 0x32611c0] 264 - core 148 - H.264/MPEG-4 AVC codec - Copyleft 2003-2016 - http://www.videolan.org/x264.html - options: cabac=1 ref=1 deblock=1:0:0 analyse=0x3:0x113 me=hex subme=2 psy=1 psy_rd=1.00:0.00 mixed_ref=0 me_range=16 chroma_me=1 trellis=0 8x8dct=1 cqm=0 deadzone=21,11 fast_pskip=1 chroma_qp_offset=0 threads=6 lookahead_threads=2 sliced_threads=0 nr=0 decimate=1 interlaced=0 bluray_compat=0 constrained_intra=0 bframes=3 b_pyramid=2 b_adapt=1 b_bias=0 direct=1 weightb=1 open_gop=0 weightp=1 keyint=250 keyint_min=25 scenecut=40 intra_refresh=0 rc_lookahead=10 rc=abr mbtree=1 bitrate=4000 ratetol=1.0 qcomp=0.60 qpmin=0 qpmax=69 qpstep=4 ip_ratio=1.40 aq=1:1.00
Output #0, matroska, to 'Output/x264/encoded/crowd_run_2160p50veryfast4000k.mkv':
  Metadata:
    encoder         : Lavf57.57.100
    Stream #0:0: Video: h264 (libx264) (H264 / 0x34363248), yuv420p, 3840x2160 [SAR 1:1 DAR 16:9], q=-1--1, 4000 kb/s, 50 fps, 1k tbn, 50 tbc
    Metadata:
      encoder         : Lavc57.66.101 libx264
    Side data:
      cpb: bitrate max/min/avg: 0/0/4000000 buffer size: 0 vbv_delay: -1
Stream mapping:
  Stream #0:0 -> #0:0 (rawvideo (native) -> h264 (libx264))
Press [q] to stop, [?] for help
frame=   14 fps=0.0 q=0.0 size=       0kB time=00:00:00.00 bitrate=N/A speed=   0x    frame=   24 fps= 20 q=43.0 size=       1kB time=00:00:00.02 bitrate= 279.2kbits/s speed=0.0174x    frame=   33 fps= 17 q=55.0 size=       1kB time=00:00:00.20 bitrate=  29.2kbits/s speed=0.105x    frame=   40 fps= 16 q=55.0 size=       1kB time=00:00:00.34 bitrate=  17.2kbits/s speed=0.136x    frame=   52 fps= 16 q=55.0 size=       1kB time=00:00:00.58 bitrate=  10.1kbits/s speed=0.179x    frame=   67 fps= 18 q=55.0 size=       1kB time=00:00:00.88 bitrate=   6.7kbits/s speed=0.235x    frame=   82 fps= 19 q=55.0 size=       1kB time=00:00:01.18 bitrate=   5.0kbits/s speed=0.276x    frame=   87 fps= 18 q=55.0 size=       1kB time=00:00:01.28 bitrate=   4.6kbits/s speed=0.264x    frame=   97 fps= 18 q=55.0 size=       1kB time=00:00:01.48 bitrate=   4.0kbits/s speed=0.275x    frame=  111 fps= 19 q=54.0 size=       1kB time=00:00:01.76 bitrate=   3.3kbits/s speed=0.299x    frame=  126 fps= 20 q=54.0 size=       1kB time=00:00:02.06 bitrate=   2.8kbits/s speed=0.322x    frame=  141 fps= 20 q=54.0 size=       1kB time=00:00:02.36 bitrate=   2.5kbits/s speed=0.342x    frame=  152 fps= 20 q=54.0 size=       1kB time=00:00:02.58 bitrate=   2.3kbits/s speed=0.337x    frame=  166 fps= 20 q=54.0 size=       1kB time=00:00:02.86 bitrate=   2.0kbits/s speed=0.351x    frame=  172 fps= 20 q=54.0 size=       1kB time=00:00:02.98 bitrate=   2.0kbits/s speed=0.344x    frame=  187 fps= 20 q=54.0 size=       1kB time=00:00:03.28 bitrate=   1.8kbits/s speed=0.357x    frame=  202 fps= 21 q=53.0 size=       1kB time=00:00:03.58 bitrate=   1.6kbits/s speed=0.368x    frame=  217 fps= 21 q=53.0 size=       1kB time=00:00:03.88 bitrate=   1.5kbits/s speed=0.378x    frame=  223 fps= 21 q=53.0 size=       1kB time=00:00:04.00 bitrate=   1.5kbits/s speed=0.372x    frame=  238 fps= 21 q=53.0 size=       1kB time=00:00:04.30 bitrate=   1.4kbits/s speed=0.381x    frame=  253 fps= 21 q=53.0 size=       1kB time=00:00:04.60 bitrate=   1.3kbits/s speed=0.39x    frame=  267 fps= 21 q=54.0 size=       1kB time=00:00:04.88 bitrate=   1.2kbits/s speed=0.392x    frame=  281 fps= 22 q=54.0 size=    2506kB time=00:00:05.16 bitrate=3977.4kbits/s speed=0.399x    frame=  286 fps= 21 q=54.0 size=    2506kB time=00:00:05.26 bitrate=3901.8kbits/s speed=0.391x    frame=  301 fps= 22 q=54.0 size=    2506kB time=00:00:05.56 bitrate=3691.3kbits/s speed=0.398x    frame=  316 fps= 22 q=54.0 size=    2506kB time=00:00:05.86 bitrate=3502.4kbits/s speed=0.404x    frame=  324 fps= 21 q=54.0 size=    2506kB time=00:00:06.02 bitrate=3409.3kbits/s speed=0.399x    frame=  332 fps= 21 q=54.0 size=    2506kB time=00:00:06.18 bitrate=3321.1kbits/s speed=0.395x    frame=  347 fps= 21 q=54.0 size=    2506kB time=00:00:06.48 bitrate=3167.3kbits/s speed=0.401x    frame=  356 fps= 21 q=54.0 size=    2506kB time=00:00:06.66 bitrate=3081.7kbits/s speed=0.396x    frame=  362 fps= 21 q=54.0 size=    2506kB time=00:00:06.78 bitrate=3027.2kbits/s speed=0.39x    frame=  377 fps= 21 q=54.0 size=    2506kB time=00:00:07.08 bitrate=2898.9kbits/s speed=0.396x    frame=  389 fps= 21 q=54.0 size=    2506kB time=00:00:07.32 bitrate=2803.9kbits/s speed=0.394x    frame=  402 fps= 21 q=54.0 size=    2506kB time=00:00:07.58 bitrate=2707.7kbits/s speed=0.394x    frame=  408 fps= 21 q=54.0 size=    2506kB time=00:00:07.70 bitrate=2665.6kbits/s speed=0.388x    frame=  416 fps= 20 q=54.0 size=    2506kB time=00:00:07.86 bitrate=2611.3kbits/s speed=0.383x    frame=  422 fps= 20 q=54.0 size=    2506kB time=00:00:07.98 bitrate=2572.0kbits/s speed=0.38x    frame=  427 fps= 20 q=54.0 size=    2506kB time=00:00:08.08 bitrate=2540.2kbits/s speed=0.375x    frame=  433 fps= 20 q=54.0 size=    2506kB time=00:00:08.20 bitrate=2503.0kbits/s speed=0.372x    frame=  437 fps= 19 q=54.0 size=    2506kB time=00:00:08.28 bitrate=2478.9kbits/s speed=0.366x    frame=  443 fps= 19 q=54.0 size=    2506kB time=00:00:08.40 bitrate=2443.5kbits/s speed=0.361x    frame=  449 fps= 19 q=54.0 size=    2506kB time=00:00:08.52 bitrate=2409.0kbits/s speed=0.352x    frame=  456 fps= 18 q=54.0 size=    2506kB time=00:00:08.66 bitrate=2370.1kbits/s speed=0.351x    frame=  468 fps= 19 q=55.0 size=    2506kB time=00:00:08.90 bitrate=2306.2kbits/s speed=0.353x    frame=  477 fps= 19 q=55.0 size=    2506kB time=00:00:09.08 bitrate=2260.5kbits/s speed=0.353x    frame=  491 fps= 19 q=55.0 size=    2506kB time=00:00:09.36 bitrate=2192.9kbits/s speed=0.356x    frame=  500 fps= 19 q=-1.0 Lsize=    5199kB time=00:00:09.94 bitrate=4283.9kbits/s speed=0.368x    
video:5194kB audio:0kB subtitle:0kB other streams:0kB global headers:0kB muxing overhead: 0.083608%
bench: utime=57.504s
bench: maxrss=1084532kB
[libx264 @ 0x32611c0] frame I:2     Avg QP:43.11  size:124648
[libx264 @ 0x32611c0] frame P:126   Avg QP:50.79  size: 21887
[libx264 @ 0x32611c0] frame B:372   Avg QP:50.85  size:  6213
[libx264 @ 0x32611c0] consecutive B-frames:  0.8%  0.0%  0.0% 99.2%
[libx264 @ 0x32611c0] mb I  I16..4: 40.3% 56.6%  3.1%
[libx264 @ 0x32611c0] mb P  I16..4:  9.0%  8.3%  0.0%  P16..4:  8.5%  1.5%  0.4%  0.0%  0.0%    skip:72.3%
[libx264 @ 0x32611c0] mb B  I16..4:  0.5%  0.2%  0.0%  B16..8:  6.1%  0.4%  0.0%  direct: 1.4%  skip:91.4%  L0:45.5% L1:54.1% BI: 0.3%
[libx264 @ 0x32611c0] final ratefactor: 46.26
[libx264 @ 0x32611c0] 8x8 transform intra:46.6% inter:61.7%
[libx264 @ 0x32611c0] coded y,uvDC,uvAC intra: 11.6% 53.7% 2.7% inter: 0.2% 2.8% 0.0%
[libx264 @ 0x32611c0] i16 v,h,dc,p: 57% 25% 14%  5%
[libx264 @ 0x32611c0] i8 v,h,dc,ddl,ddr,vr,hd,vl,hu: 12% 10% 61%  3%  2%  3%  3%  3%  3%
[libx264 @ 0x32611c0] i4 v,h,dc,ddl,ddr,vr,hd,vl,hu: 23% 17% 13%  9%  9%  8%  7%  7%  7%
[libx264 @ 0x32611c0] i8c dc,h,v,p: 91%  3%  5%  0%
[libx264 @ 0x32611c0] Weighted P-Frames: Y:1.6% UV:0.0%
[libx264 @ 0x32611c0] kb/s:4254.56
